<?xml version="1.0" standalone="no"?>
<!DOCTYPE svg PUBLIC "-//W3C//DTD SVG 20010904//EN"
 "http://www.w3.org/TR/2001/REC-SVG-20010904/DTD/svg10.dtd">
<svg version="1.0" xmlns="http://www.w3.org/2000/svg"
 width="250.000000pt" height="250.000000pt" viewBox="0 0 250.000000 250.000000"
 preserveAspectRatio="xMidYMid meet">

<g transform="translate(0.000000,250.000000) scale(0.100000,-0.100000)"
fill="#51894b" stroke="none">
<path d="M0 1250 l0 -1250 1250 0 1250 0 0 1250 0 1250 -1250 0 -1250 0 0
-1250z m1613 -48 c103 -274 187 -501 187 -505 0 -4 -74 -7 -165 -7 l-164 0
-26 85 -26 85 -173 0 -173 0 -24 -85 -23 -85 -164 0 c-127 0 -163 3 -160 13 2
6 87 234 189 504 l184 493 175 0 175 0 188 -498z"/>
<path d="M1194 1249 l-51 -169 103 0 c57 0 104 3 104 6 0 7 -99 326 -102 330
-2 1 -26 -74 -54 -167z"/>
</g>
</svg>